<svg xmlns="http://www.w3.org/2000/svg" class="graphdiagram" viewBox="-692.4146878941473 -487.59479449086285 1850 981"><g class="layer relationships"><g class="related-pair"><g class="relationship" transform="translate(-137,69) rotate(19.480989050340526)"><path class="relationship" d="M 85.00504346293914 4 L 400.1956716725424 4 L 400.1956716725424 16 L 432.1956716725424 0 L 400.1956716725424 -16 L 400.1956716725424 -4 L 85.00504346293914 -4 Z" fill="rgb(0, 0, 0)" stroke="rgb(51, 51, 51)" stroke-width="0px"/><text class="type" text-anchor="middle" baseline-shift="30%" alignment-baseline="alphabetic" x="242.60035756774076" y="0" font-size="50px" font-family="&quot;Gill Sans&quot;, &quot;Gill Sans MT&quot;, Calibri, sans-serif">Found at</text></g></g><g class="related-pair"><g class="relationship" transform="translate(-137,69) rotate(-10.069818310736254)"><path class="relationship" d="M 85.00504346293914 4 L 575.814065296403 4 L 575.814065296403 16 L 607.814065296403 0 L 575.814065296403 -16 L 575.814065296403 -4 L 85.00504346293914 -4 Z" fill="rgb(0, 0, 0)" stroke="rgb(51, 51, 51)" stroke-width="0px"/><text class="type" text-anchor="middle" baseline-shift="30%" alignment-baseline="alphabetic" x="330.409554379671" y="0" font-size="50px" font-family="&quot;Gill Sans&quot;, &quot;Gill Sans MT&quot;, Calibri, sans-serif">Is</text></g></g><g class="related-pair"><g class="relationship" transform="translate(-137,69) rotate(-29.138533695140953)"><path class="relationship" d="M 85.00504346293914 4 L 424.6888707092402 4 L 424.6888707092402 16 L 456.6888707092402 0 L 424.6888707092402 -16 L 424.6888707092402 -4 L 85.00504346293914 -4 Z" fill="rgb(0, 0, 0)" stroke="rgb(51, 51, 51)" stroke-width="0px"/><text class="type" text-anchor="middle" baseline-shift="30%" alignment-baseline="alphabetic" x="254.84695708608965" y="0" font-size="50px" font-family="&quot;Gill Sans&quot;, &quot;Gill Sans MT&quot;, Calibri, sans-serif">Contains</text></g></g></g><g class="layer nodes"><circle class="node node-id-0" r="86.34856329442565" fill="rgb(255, 255, 255)" stroke="rgb(0, 0, 0)" stroke-width="8px" cx="366" cy="246.933837890625"/><circle class="node node-id-1" r="70.00504346293914" fill="rgb(255, 255, 255)" stroke="rgb(0, 0, 0)" stroke-width="8px" cx="-137" cy="69"/><circle class="node node-id-2" r="66.4102990289031" fill="rgb(255, 255, 255)" stroke="rgb(0, 0, 0)" stroke-width="8px" cx="333" cy="-193.0128173828125"/><circle class="node node-id-3" r="74.93445673714466" fill="rgb(255, 255, 255)" stroke="rgb(0, 0, 0)" stroke-width="8px" cx="550" cy="-53"/><g class="caption"><text class="caption node" text-anchor="middle" alignment-baseline="central" x="366" y="246.933837890625" fill="rgb(51, 51, 51)" font-size="50px" font-family="&quot;Gill Sans&quot;, &quot;Gill Sans MT&quot;, Calibri, sans-serif">Place</text></g><g class="caption"><text class="caption node" text-anchor="middle" alignment-baseline="central" x="-137" y="69" fill="rgb(51, 51, 51)" font-size="50px" font-family="&quot;Gill Sans&quot;, &quot;Gill Sans MT&quot;, Calibri, sans-serif">Bird</text></g><g class="caption"><text class="caption node" text-anchor="middle" alignment-baseline="central" x="333" y="-193.0128173828125" fill="rgb(51, 51, 51)" font-size="50px" font-family="&quot;Gill Sans&quot;, &quot;Gill Sans MT&quot;, Calibri, sans-serif">File</text></g><g class="caption"><text class="caption node" text-anchor="middle" alignment-baseline="central" x="550" y="-53" fill="rgb(51, 51, 51)" font-size="50px" font-family="&quot;Gill Sans&quot;, &quot;Gill Sans MT&quot;, Calibri, sans-serif">Kind</text></g></g><g class="layer properties"><g class="speech-bubble node-speech-bubble" transform="translate(452.3485632944256,246.933837890625) "><path class="speech-bubble-outline" transform="scale(1,1) " d="M 0 0 L 20 -10 L 20 -50 A 10 10 0 0 1 30 -60 L 371.89453125 -60 A 10 10 0 0 1 381.89453125 -50 L 381.89453125 50 A 10 10 0 0 1 371.89453125 60 L 30 60 A 10 10 0 0 1 20 50 L 20 10 Z" fill="rgb(255, 255, 255)" stroke="rgb(0, 0, 0)" stroke-width="3px"/><text class="speech-bubble-content property-key" x="260.7373046875" y="-25" alignment-baseline="central" text-anchor="end" font-size="50px" font-family="&quot;Gill Sans&quot;, &quot;Gill Sans MT&quot;, Calibri, sans-serif" xml:space="preserve">latitude: </text><text class="speech-bubble-content property-key" x="260.7373046875" y="25" alignment-baseline="central" text-anchor="end" font-size="50px" font-family="&quot;Gill Sans&quot;, &quot;Gill Sans MT&quot;, Calibri, sans-serif" xml:space="preserve">longitude: </text><text class="speech-bubble-content property-value" x="260.7373046875" y="-25" alignment-baseline="central" font-size="50px" font-family="&quot;Gill Sans&quot;, &quot;Gill Sans MT&quot;, Calibri, sans-serif">Float</text><text class="speech-bubble-content property-value" x="260.7373046875" y="25" alignment-baseline="central" font-size="50px" font-family="&quot;Gill Sans&quot;, &quot;Gill Sans MT&quot;, Calibri, sans-serif">Float</text></g><g class="speech-bubble node-speech-bubble" transform="translate(-207.00504346293914,69) "><path class="speech-bubble-outline" transform="scale(-1,1) " d="M 0 0 L 20 -10 L 20 -25 A 10 10 0 0 1 30 -35 L 266.23046875 -35 A 10 10 0 0 1 276.23046875 -25 L 276.23046875 25 A 10 10 0 0 1 266.23046875 35 L 30 35 A 10 10 0 0 1 20 25 L 20 10 Z" fill="rgb(255, 255, 255)" stroke="rgb(0, 0, 0)" stroke-width="3px"/><text class="speech-bubble-content property-key" x="-82.8076171875" y="0" alignment-baseline="central" text-anchor="end" font-size="50px" font-family="&quot;Gill Sans&quot;, &quot;Gill Sans MT&quot;, Calibri, sans-serif" xml:space="preserve">Bird_id: </text><text class="speech-bubble-content property-value" x="-82.8076171875" y="0" alignment-baseline="central" font-size="50px" font-family="&quot;Gill Sans&quot;, &quot;Gill Sans MT&quot;, Calibri, sans-serif">int</text></g><g class="speech-bubble node-speech-bubble" transform="translate(379.95917278396377,-239.97199016677627) "><path class="speech-bubble-outline" transform="scale(1,-1) " d="M 0 0 L 30 20 L 288.4228515625 20 A 10 10 0 0 1 298.4228515625 30 L 298.4228515625 80 A 10 10 0 0 1 288.4228515625 90 L 30 90 A 10 10 0 0 1 20 80 L 20 30 Z" fill="rgb(255, 255, 255)" stroke="rgb(0, 0, 0)" stroke-width="3px"/><text class="speech-bubble-content property-key" x="157.8076171875" y="-55" alignment-baseline="central" text-anchor="end" font-size="50px" font-family="&quot;Gill Sans&quot;, &quot;Gill Sans MT&quot;, Calibri, sans-serif" xml:space="preserve">URL: </text><text class="speech-bubble-content property-value" x="157.8076171875" y="-55" alignment-baseline="central" font-size="50px" font-family="&quot;Gill Sans&quot;, &quot;Gill Sans MT&quot;, Calibri, sans-serif">String</text></g><g class="speech-bubble node-speech-bubble" transform="translate(624.9344567371446,-53) "><path class="speech-bubble-outline" transform="scale(1,1) " d="M 0 0 L 20 -10 L 20 -25 A 10 10 0 0 1 30 -35 L 313.4716796875 -35 A 10 10 0 0 1 323.4716796875 -25 L 323.4716796875 25 A 10 10 0 0 1 313.4716796875 35 L 30 35 A 10 10 0 0 1 20 25 L 20 10 Z" fill="rgb(255, 255, 255)" stroke="rgb(0, 0, 0)" stroke-width="3px"/><text class="speech-bubble-content property-key" x="182.8564453125" y="0" alignment-baseline="central" text-anchor="end" font-size="50px" font-family="&quot;Gill Sans&quot;, &quot;Gill Sans MT&quot;, Calibri, sans-serif" xml:space="preserve">name: </text><text class="speech-bubble-content property-value" x="182.8564453125" y="0" alignment-baseline="central" font-size="50px" font-family="&quot;Gill Sans&quot;, &quot;Gill Sans MT&quot;, Calibri, sans-serif">String</text></g></g><g class="layer overlay"><circle class="node overlay" r="90.34856329442565" stroke="none" fill="rgba(255, 255, 255, 0)" cx="366" cy="246.933837890625"/><circle class="node overlay" r="74.00504346293914" stroke="none" fill="rgba(255, 255, 255, 0)" cx="-137" cy="69"/><circle class="node overlay" r="70.4102990289031" stroke="none" fill="rgba(255, 255, 255, 0)" cx="333" cy="-193.0128173828125"/><circle class="node overlay" r="78.93445673714466" stroke="none" fill="rgba(255, 255, 255, 0)" cx="550" cy="-53"/><circle class="node ring" r="95.34856329442565" fill="none" stroke="rgba(255, 255, 255, 0)" stroke-width="10px" cx="366" cy="246.933837890625"/><circle class="node ring" r="79.00504346293914" fill="none" stroke="rgba(255, 255, 255, 0)" stroke-width="10px" cx="-137" cy="69"/><circle class="node ring" r="75.4102990289031" fill="none" stroke="rgba(255, 255, 255, 0)" stroke-width="10px" cx="333" cy="-193.0128173828125"/><circle class="node ring" r="83.93445673714466" fill="none" stroke="rgba(255, 255, 255, 0)" stroke-width="10px" cx="550" cy="-53"/><path class="relationship overlay" fill="rgba(255, 255, 255, 0)" stroke="rgba(255, 255, 255, 0)" stroke-width="10px" transform="translate(-137,69) rotate(19.480989050340526)" d="M 85.00504346293914 4 L 400.1956716725424 4 L 400.1956716725424 16 L 432.1956716725424 0 L 400.1956716725424 -16 L 400.1956716725424 -4 L 85.00504346293914 -4 Z"/><path class="relationship overlay" fill="rgba(255, 255, 255, 0)" stroke="rgba(255, 255, 255, 0)" stroke-width="10px" transform="translate(-137,69) rotate(-10.069818310736254)" d="M 85.00504346293914 4 L 575.814065296403 4 L 575.814065296403 16 L 607.814065296403 0 L 575.814065296403 -16 L 575.814065296403 -4 L 85.00504346293914 -4 Z"/><path class="relationship overlay" fill="rgba(255, 255, 255, 0)" stroke="rgba(255, 255, 255, 0)" stroke-width="10px" transform="translate(-137,69) rotate(-29.138533695140953)" d="M 85.00504346293914 4 L 424.6888707092402 4 L 424.6888707092402 16 L 456.6888707092402 0 L 424.6888707092402 -16 L 424.6888707092402 -4 L 85.00504346293914 -4 Z"/></g></svg>